Coordinates
version=1
nRows=17
nColumns=24
inDegrees=yes

Units are S.I. units (second, meters, Newtons, ...)
If the header above contains a line with 'inDegrees', this indicates whether rotational values are in degrees (yes) or radians (no).

endheader
time	pelvis_tilt	pelvis_list	pelvis_rotation	pelvis_tx	pelvis_ty	pelvis_tz	hip_flexion_r	hip_adduction_r	hip_rotation_r	knee_angle_r	ankle_angle_r	subtalar_angle_r	mtp_angle_r	hip_flexion_l	hip_adduction_l	hip_rotation_l	knee_angle_l	ankle_angle_l	subtalar_angle_l	mtp_angle_l	lumbar_extension	lumbar_bending	lumbar_rotation
      0.00000000	      9.21209575	      1.87855314	     -1.38097816	     -1.31197082	      0.73575628	      0.30729300	     26.38958585	     -4.17794739	     -4.72210471	    -78.29318896	     -4.84259215	    -12.65143597	      0.00000000	      4.69288422	      5.83772346	     -4.79894837	    -21.80525992	     11.38702031	    -10.86054302	      0.00000000	      0.00000000	      0.00000000	      0.00000000
      0.00666667	      9.19086179	      1.94518439	     -0.83483959	     -1.30484356	      0.73631696	      0.30675092	     27.18312260	     -4.19807578	     -4.92847458	    -77.42911894	     -4.29551142	    -12.94051487	      0.00000000	      3.87891625	      5.95530979	     -4.28835212	    -21.41839142	     11.71145423	    -10.71320865	      0.00000000	      0.00000000	      0.00000000	      0.00000000
      0.01333333	      9.50322407	      2.05084995	     -0.06330904	     -1.29780529	      0.73711953	      0.30593521	     27.44542089	     -4.44937760	     -5.40614150	    -76.34476638	     -3.71181841	    -13.22555984	      0.00000000	      2.72348285	      6.13621683	     -3.47024891	    -21.08333382	     12.10392406	    -10.56317993	      0.00000000	      0.00000000	      0.00000000	      0.00000000
      0.02000000	      9.75602679	      2.15054669	      0.50711295	     -1.29062202	      0.73782264	      0.30532917	     27.71971860	     -4.60595397	     -5.70181140	    -75.10377316	     -3.21712882	    -13.54866898	      0.00000000	      1.57001528	      6.26636872	     -2.94167893	    -20.65045432	     12.44941198	    -10.42549838	      0.00000000	      0.00000000	      0.00000000	      0.00000000
      0.02666667	      9.97409513	      2.26600060	      1.04728130	     -1.28347387	      0.73839851	      0.30479677	     27.96170071	     -4.74670246	     -5.94774585	    -73.69074399	     -2.79542015	    -13.90666770	      0.00000000	      0.47842461	      6.38088739	     -2.49357072	    -20.25655879	     12.80594220	    -10.23784541	      0.00000000	      0.00000000	      0.00000000	      0.00000000
      0.03333333	     10.12594665	      2.40723951	      1.59580245	     -1.27633914	      0.73880068	      0.30432171	     28.19152219	     -4.92606419	     -6.19988727	    -72.13062272	     -2.38951078	    -14.30767398	      0.00000000	     -0.51620675	      6.49519246	     -2.06083635	    -19.90514213	     13.19741205	    -10.00758265	      0.00000000	      0.00000000	      0.00000000	      0.00000000
      0.04000000	     10.31362341	      2.54114164	      2.11901151	     -1.26916335	      0.73919211	      0.30387432	     28.27919112	     -5.09516723	     -6.45342461	    -70.36452938	     -2.02843226	    -14.71991810	      0.00000000	     -1.57052597	      6.58287513	     -1.67261339	    -19.52944801	     13.60847151	     -9.72432633	      0.00000000	      0.00000000	      0.00000000	      0.00000000
      0.04666667	     10.38790640	      2.71320524	      2.64663256	     -1.26201735	      0.73933915	      0.30343425	     28.41921651	     -5.31043875	     -6.68764541	    -68.46100637	     -1.66563216	    -15.09783228	      0.00000000	     -2.46961896	      6.69756643	     -1.27422329	    -19.21011165	     14.01693694	     -9.46172330	      0.00000000	      0.00000000	      0.00000000	      0.00000000
      0.05333333	     10.19585782	      2.93535039	      3.01589137	     -1.25484858	      0.73909554	      0.30312214	     28.84516059	     -5.52947927	     -6.75077680	    -66.46497817	     -1.29623890	    -15.34756989	      0.00000000	     -3.08484609	      6.88099087	     -1.05345018	    -18.87019268	     14.34841032	     -9.31465513	      0.00000000	      0.00000000	      0.00000000	      0.00000000
      0.06000000	     10.13137239	      3.15557516	      3.53876161	     -1.24778431	      0.73894794	      0.30274492	     28.97293589	     -5.78397646	     -6.94129861	    -64.23735249	     -0.93050261	    -15.63629104	      0.00000000	     -3.81292910	      7.03676650	     -0.58043768	    -18.58530652	     14.73484438	     -9.08419081	      0.00000000	      0.00000000	      0.00000000	      0.00000000
      0.06666667	     10.33560168	      3.32513425	      4.13269387	     -1.24076004	      0.73903376	      0.30224220	     28.64635654	     -6.05868495	     -7.32586230	    -61.76173083	     -0.64950254	    -15.87383593	      0.00000000	     -4.83260540	      7.08689057	     -0.07132754	    -18.31220588	     15.16519535	     -8.78315167	      0.00000000	      0.00000000	      0.00000000	      0.00000000
      0.07333333	     10.02924432	      3.60311897	      4.43355103	     -1.23366812	      0.73844168	      0.30204378	     28.96226283	     -6.32119882	     -7.33561939	    -59.29419489	     -0.31560882	    -15.95623378	      0.00000000	     -5.32485264	      7.31298733	      0.15350884	    -17.97235685	     15.46454773	     -8.63441690	      0.00000000	      0.00000000	      0.00000000	      0.00000000
      0.08000000	      9.99391290	      3.80431073	      5.00006197	     -1.22669919	      0.73815665	      0.30160400	     28.76192122	     -6.63175132	     -7.70770178	    -56.54649229	      0.06995191	    -15.86459165	      0.00000000	     -6.04624956	      7.39157063	      0.64493396	    -17.76061372	     15.85060677	     -8.40558516	      0.00000000	      0.00000000	      0.00000000	      0.00000000
      0.08666667	      9.61336061	      4.09000471	      5.28477341	     -1.21967769	      0.73738029	      0.30143391	     28.98962055	     -6.89144563	     -7.70153343	    -53.76467430	      0.39644221	    -15.72970022	      0.00000000	     -6.43894615	      7.61873124	      0.87504698	    -17.46396846	     16.11625672	     -8.24999332	      0.00000000	      0.00000000	      0.00000000	      0.00000000
      0.09333333	      9.29144385	      4.55830477	      5.49137569	     -1.21292932	      0.73640214	      0.30130238	     29.21277861	     -7.32948364	     -7.58989942	    -51.02509427	      0.52131547	    -15.55420284	      0.00000000	     -6.73577444	      8.02797478	      0.77592255	    -17.44106718	     16.37629474	     -8.23556892	      0.00000000	      0.00000000	      0.00000000	      0.00000000
      0.10000000	      8.95421686	      4.49417492	      6.13272327	     -1.20580492	      0.73590271	      0.30081179	     28.95356283	     -7.43456192	     -8.25002420	    -47.64992346	      1.27925381	    -14.68616505	      0.00000000	     -7.16081160	      7.81988521	      1.45419808	    -17.18388198	     16.76028401	     -7.84590576	      0.00000000	      0.00000000	      0.00000000	      0.00000000
      0.10666667	      8.44364229	      4.76604188	      6.33376663	     -1.19887880	      0.73486228	      0.30072891	     29.12283596	     -7.63788648	     -8.20470385	    -44.48711460	      1.62000115	    -14.10804731	      0.00000000	     -7.39521159	      8.04597881	      1.58790074	    -16.91324315	     16.97809707	     -7.63464758	      0.00000000	      0.00000000	      0.00000000	      0.00000000
